{"title":"Rossana Foglia, Rubens Rewald - Corpo (2007)","uid":5866625,"size":1369819072,"categoryP":"video","categoryS":"movies","magnet":"?xt=urn:btih:2baf06d796b2c48d6adbd45c2d1122307be48b54&amp;dn=Rossana+Foglia%2C+Rubens+Rewald+-+Corpo+%282007%29&amp;tr=udp%3A%2F%2Ftracker.openbittorrent.com%3A80&amp;tr=udp%3A%2F%2Fopen.demonii.com%3A1337&amp;tr=udp%3A%2F%2Ftracker.coppersurfer.tk%3A6969&amp;tr=udp%3A%2F%2Fexodus.desync.com%3A6969","seeders":1,"leechers":0,"uploader":"mfccorrea","files":3,"time":1286231777,"description":"A Sao Paolo forensic pathologist who fights boredom by dreaming up causes of death for those who have yet to pass away is called on to examine a most atypical corpse in this mystery from co-directors/co-screenwriters Rossana Foglia and Rubens Rewald. Artur is good at his job, but quick to lapse into daydreams. Asked to examine the inexplicably preserved corpse of a woman buried in a mass grave of protestors that had vanished during the military dictatorship of the 1970s, Artur is intrigued that the body is in much the same shape as it must have been thirty years ago. At first Artur suspects that the corpse is the mother of a young woman named Fernanda, but then he discovers that Fernanda's mother is still very much alive. \n\n   General\n      Complete name : Corpo.avi\n      Format : AVI\n      Format/Info : Audio Video Interleave\n      File size : 1.26 GiB\n      Duration : 1h 24mn\n      Overall bit rate : 2 131 Kbps\n      Writing application : FairUse Wizard - http://fairusewizard.com\n      Writing library : The best and REALLY easy backup tool\n   Video #0\n      ID : 0\n      Format : MPEG-4 Visual\n      Format profile : AdvancedSimple@L5\n      Format settings, BVOP : Yes\n      Format settings, QPel : No\n      Format settings, GMC : No warppoints\n      Format settings, Matrix : Default (MPEG)\n      Muxing mode : Packed bitstream\n      Codec ID : XVID\n      Codec ID/Hint : XviD\n      Duration : 1h 24mn\n      Bit rate : 1 738 Kbps\n      Width : 688 pixels\n      Height : 384 pixels\n      Display aspect ratio : 16:9\n      Frame rate : 23.976 fps\n      Resolution : 24 bits\n      Colorimetry : 4:2:0\n      Scan type : Progressive\n      Bits/(Pixel*Frame) : 0.274\n      Stream size : 1.03 GiB (82%)\n      Writing library : XviD 1.2.0.dev47 (UTC 2006-11-01)\n   Audio #1\n      ID : 1\n      Format : AC-3\n      Format/Info : Audio Coding 3\n      Codec ID : 2000\n      Duration : 1h 24mn\n      Bit rate mode : Constant\n      Bit rate : 384 Kbps\n      Channel(s) : 6 channels\n      Channel positions : Front: L C R, Surround: L R, LFE\n      Sampling rate : 48.0 KHz\n      Stream size : 232 MiB (18%)\n      Alignment : Split accross interleaves\n      Interleave, duration : 42 ms (1.00 video frame)\n      Interleave, preload duration : 500 ms\n &lt;a href=&quot;\nhttp://www.imdb.com/title/tt0469748/&quot; rel=&quot;nofollow&quot; target=&quot;_NEW&quot;&gt;\nhttp://www.imdb.com/title/tt0469748/&lt;/a&gt;\n\nPortuguese audio; English, French, Spanish and Portuguese subpack\n\nRossana Foglia, Rubens Rewald - Corpo (2007)","torrent":{"xt":"urn:btih:2baf06d796b2c48d6adbd45c2d1122307be48b54","amp;dn":"Rossana+Foglia%2C+Rubens+Rewald+-+Corpo+%282007%29","amp;tr":["udp%3A%2F%2Ftracker.openbittorrent.com%3A80","udp%3A%2F%2Fopen.demonii.com%3A1337","udp%3A%2F%2Ftracker.coppersurfer.tk%3A6969","udp%3A%2F%2Fexodus.desync.com%3A6969"],"infoHash":"2baf06d796b2c48d6adbd45c2d1122307be48b54","infoHashBuffer":{"type":"Buffer","data":[43,175,6,215,150,178,196,141,106,219,212,92,45,17,34,48,123,228,139,84]},"announce":[],"urlList":[]}}